<svg xmlns="http://www.w3.org/2000/svg" viewBox="0 0 76.5 97.1"><defs><style>.a{fill:none;stroke:#fff;stroke-miterlimit:10;stroke-width:2px;}</style></defs><title>motivate-white</title><rect class="a" x="35.8" y="81.2" width="5" height="9.16"/><path class="a" d="M74,36H26s-1.6,23.1,9.7,36.4C43.3,81.5,50,82.6,50,82.6s6.7-1.1,14.3-10.1C75.6,59.1,74,36,74,36Z" transform="translate(-11.7 -0.8)"/><polygon class="a" points="26.5 35.2 38.3 35.2 50.1 35.2 48.8 27.9 59.4 17.6 44.8 15.5 38.3 2.3 31.7 15.5 17.1 17.6 27.7 27.9 26.5 35.2"/><polygon class="a" points="26.2 90.3 50.3 90.3 52.5 96.1 24 96.1 26.2 90.3"/><polygon class="a" points="45.5 35.3 38.4 35.3 38.2 35.3 31 35.3 31 58.5 38.3 53.3 45.5 58.5 45.5 35.3"/><path class="a" d="M74.1,42.5H87.2a44.5,44.5,0,0,1-5,16.5,27,27,0,0,1-18,13.4" transform="translate(-11.7 -0.8)"/><path class="a" d="M25.9,42.5H12.8a44.5,44.5,0,0,0,5,16.5,27,27,0,0,0,18,13.4" transform="translate(-11.7 -0.8)"/><path class="a" d="M26.2,47.7H19.1a24.3,24.3,0,0,0,2.8,9,19.9,19.9,0,0,0,9.2,8.6" transform="translate(-11.7 -0.8)"/><path class="a" d="M73.8,47.7h7.1a24.3,24.3,0,0,1-2.8,9,19.9,19.9,0,0,1-9.2,8.6" transform="translate(-11.7 -0.8)"/></svg>