<svg xmlns="http://www.w3.org/2000/svg" viewBox="0 0 73 92.7"><defs><style>.a{fill:#fff;}.a,.b{stroke:#1e78d7;stroke-miterlimit:10;stroke-width:2px;}.b{fill:none;}</style></defs><title>motivate</title><polygon class="a" points="36.5 2.3 42.7 14.9 56.6 16.9 46.6 26.7 48.9 40.5 36.5 34 24.1 40.5 26.5 26.7 16.4 16.9 30.3 14.9 36.5 2.3"/><rect class="b" x="34.1" y="77.5" width="4.8" height="8.73"/><path class="a" d="M72.9,36.7H27.1s-1.5,22,9.3,34.7C43.6,80,50,81,50,81s6.4-1,13.6-9.6C74.4,58.7,72.9,36.7,72.9,36.7Z" transform="translate(-13.5 -3)"/><polygon class="b" points="25 86.2 48 86.2 50.1 91.7 23 91.7 25 86.2"/><polygon class="b" points="43.4 33.7 36.6 33.7 36.4 33.7 29.6 33.7 29.6 55.9 36.5 50.9 43.4 55.9 43.4 33.7"/><path class="b" d="M73,42.9H85.4a42.4,42.4,0,0,1-4.8,15.7A25.7,25.7,0,0,1,63.4,71.4" transform="translate(-13.5 -3)"/><path class="b" d="M27,42.9H14.6a42.4,42.4,0,0,0,4.8,15.7A25.7,25.7,0,0,0,36.6,71.4" transform="translate(-13.5 -3)"/><path class="b" d="M27.3,47.8H20.5a23.1,23.1,0,0,0,2.6,8.6A18.9,18.9,0,0,0,32,64.6" transform="translate(-13.5 -3)"/><path class="b" d="M72.7,47.8h6.8a23.1,23.1,0,0,1-2.6,8.6A18.9,18.9,0,0,1,68,64.6" transform="translate(-13.5 -3)"/></svg>