<svg xmlns="http://www.w3.org/2000/svg" style="height:100px; width:100px;" viewBox="0 0 81 88.9"><defs><style>.a{fill:none;stroke:#fff;stroke-miterlimit:10;stroke-width:2px;}</style></defs><title>phone-in-hand</title><path class="a" d="M77.7,73.7a4,4,0,0,1-4-4v-1a4,4,0,0,1,4-4h-4a4,4,0,0,1-4-4v-1a4,4,0,0,1,4-4,4,4,0,0,1-4-3.9V51a4,4,0,0,1,4-3.9h4a4,4,0,0,1-4-4v-1a4,4,0,0,1,4-4h3.9V9.7a3.1,3.1,0,0,0-3.1-3.1H37.4a3.1,3.1,0,0,0-3.1,3.1V34.2c7.9,0,23.7-3.9,19.7,4S35,46,34.2,46V90.3a3.1,3.1,0,0,0,3.1,3.1H78.4a3.1,3.1,0,0,0,3.1-3.1V73.7Z" transform="translate(-9.5 -5.5)"/><line class="a" x1="24.7" y1="72.1" x2="72.1" y2="72.1"/><ellipse class="a" cx="48.3" cy="79.8" rx="3.8" ry="3.7"/><line class="a" x1="24.7" y1="8.9" x2="72.1" y2="8.9"/><rect class="a" x="60.3" y="50.4" width="19.7" height="8.89" rx="4.4" ry="4.4"/><rect class="a" x="60.2" y="41.5" width="19.7" height="8.89" rx="4.4" ry="4.4"/><rect class="a" x="64.2" y="32.6" width="15.8" height="8.89" rx="4.4" ry="4.4"/><rect class="a" x="64.2" y="59.3" width="15.8" height="8.89" rx="4.4" ry="4.4"/><path class="a" d="M10.5,69.8l7.9,4a39.4,39.4,0,0,0,15.8,4V46.1S50,46.1,54,38.2s-11.9-3.9-19.7-3.9S18.4,42.1,14.5,46.1l-4,4Z" transform="translate(-9.5 -5.5)"/></svg>