<svg xmlns="http://www.w3.org/2000/svg" viewBox="0 0 95.5 74.9"><defs><style>.a,.b{fill:#fff;stroke:#1e78d7;stroke-miterlimit:10;stroke-width:2px;}.b{stroke-linecap:round;}</style></defs><title>reduce-discharge</title><rect class="a" x="28.7" y="33.1" width="65.7" height="40.86"/><rect class="a" x="28.7" y="24.8" width="65.7" height="8.25"/><line class="a" x1="39.7" y1="33.1" x2="39.7" y2="73.9"/><line class="a" x1="50.6" y1="33.1" x2="50.6" y2="73.9"/><line class="a" x1="61.6" y1="33.1" x2="61.6" y2="73.9"/><line class="a" x1="72.6" y1="33.1" x2="72.6" y2="73.9"/><line class="a" x1="83.5" y1="33.1" x2="83.5" y2="73.9"/><line class="a" x1="28.7" y1="43.3" x2="94.9" y2="43.3"/><line class="a" x1="28.7" y1="53.5" x2="94.9" y2="53.5"/><line class="a" x1="28.5" y1="63.7" x2="94.7" y2="63.7"/><circle class="a" cx="28.6" cy="28.6" r="27.6"/><line class="b" x1="28.6" y1="28.6" x2="28.6" y2="5.9"/><line class="b" x1="20.6" y1="14.7" x2="17.3" y2="8.9"/><line class="b" x1="14.7" y1="20.6" x2="8.9" y2="17.3"/><line class="b" x1="12.5" y1="28.6" x2="5.9" y2="28.6"/><line class="b" x1="14.7" y1="36.7" x2="8.9" y2="40"/><line class="b" x1="20.6" y1="42.6" x2="17.3" y2="48.4"/><line class="b" x1="28.6" y1="44.7" x2="28.6" y2="51.4"/><line class="b" x1="36.7" y1="42.6" x2="40" y2="48.4"/><line class="b" x1="42.6" y1="36.7" x2="48.4" y2="40"/><line class="b" x1="28.6" y1="28.6" x2="51.4" y2="28.6"/><line class="b" x1="42.6" y1="20.6" x2="48.4" y2="17.3"/><line class="b" x1="36.7" y1="14.7" x2="40" y2="8.9"/></svg>