<svg xmlns="http://www.w3.org/2000/svg" viewBox="0 0 95.8 75.2"><defs><style>.a,.b{fill:none;stroke:#fff;stroke-miterlimit:10;stroke-width:2px;}.b{stroke-linecap:round;}</style></defs><title>reduce-discharge-white</title><circle class="a" cx="28.8" cy="28.8" r="27.8"/><line class="b" x1="28.8" y1="28.8" x2="28.8" y2="5.9"/><line class="b" x1="20.7" y1="14.8" x2="17.3" y2="8.9"/><line class="b" x1="14.8" y1="20.7" x2="8.9" y2="17.3"/><line class="b" x1="12.6" y1="28.8" x2="5.9" y2="28.8"/><line class="b" x1="14.8" y1="36.8" x2="8.9" y2="40.2"/><line class="b" x1="20.7" y1="42.8" x2="17.3" y2="48.6"/><line class="b" x1="28.8" y1="44.9" x2="28.8" y2="51.6"/><line class="b" x1="36.8" y1="42.8" x2="40.2" y2="48.6"/><line class="b" x1="42.8" y1="36.8" x2="48.6" y2="40.2"/><line class="b" x1="28.8" y1="28.8" x2="51.6" y2="28.8"/><line class="b" x1="42.8" y1="20.7" x2="48.6" y2="17.3"/><line class="b" x1="36.8" y1="14.8" x2="40.2" y2="8.9"/><line class="a" x1="39.8" y1="54.2" x2="39.8" y2="74.2"/><line class="a" x1="50.8" y1="45.6" x2="50.8" y2="74.2"/><line class="a" x1="61.8" y1="33.2" x2="61.8" y2="74.2"/><line class="a" x1="72.8" y1="33.2" x2="72.8" y2="74.2"/><line class="a" x1="83.8" y1="33.2" x2="83.8" y2="74.2"/><line class="a" x1="52.3" y1="43.4" x2="95.2" y2="43.4"/><line class="a" x1="40.9" y1="53.7" x2="95.2" y2="53.7"/><line class="a" x1="28.6" y1="63.9" x2="95" y2="63.9"/><path class="a" d="M58,45.6A27.8,27.8,0,0,1,30.7,68.9V86.6h66v-41Z" transform="translate(-1.9 -12.4)"/><path class="a" d="M58.1,37.3a27.6,27.6,0,0,1-.1,8.3H96.7V37.3Z" transform="translate(-1.9 -12.4)"/></svg>