<svg xmlns="http://www.w3.org/2000/svg" style="width:100px; height:100px;" viewBox="0 0 79.5 89.4"><defs><style>.a,.b{fill:none;stroke:#fff;stroke-width:2px;}.a{stroke-miterlimit:10;}.b{stroke-linecap:round;stroke-linejoin:round;}</style></defs><title>brain</title><path class="a" d="M76.4,90a63.8,63.8,0,0,1-21.4,3.8,46.9,46.9,0,0,1-15.7-2.4,1.6,1.6,0,0,1-1-1.4c0-.6-.1-1.4-.1-2.2,0-5.2-2.9-8.3-7.9-8.3a14.4,14.4,0,0,0-3.1.3,15.1,15.1,0,0,1-3.1.3c-4.4,0-5-2.1-5-4.2s0-2,0-3c.1-7,.2-13.6-4.3-15l-1.1-.4-2.4-.9-.2-.2a.4.4,0,0,1,0-.3c.9-2.4,3.7-6.4,5.8-9.3l2.2-3.2a5.8,5.8,0,0,0,.7-4.8c-1.5-4.9-.6-10.7,2.5-16.1A32.6,32.6,0,0,1,41.9,7.7,47.5,47.5,0,0,1,53.7,6.3c6.9,0,29.7,1.6,34.1,22.7,3.2,15.2-2.2,22.5-7.4,29.5-2.7,3.7-5.3,7.1-6.4,11.5a27.3,27.3,0,0,0,2.5,20Z" transform="translate(-10.2 -5.3)"/><path class="b" d="M66.9,57.2l-4.3-7.7a7.3,7.3,0,0,1-3.5-1.1,21.5,21.5,0,0,1-3.2-2.4,6.9,6.9,0,0,1-5.7,2.3A7.2,7.2,0,0,1,45,45.5s-4.2,2.6-7.5,1.4a6.9,6.9,0,0,1-4.3-4,5.1,5.1,0,0,1-4.6-3.6A4.2,4.2,0,0,1,29.9,35s-2.2-3.6-.4-7A7,7,0,0,1,35,24.7s.5-4.1,3.5-5.8,6.1,0,6.1,0a8.3,8.3,0,0,1,7.6-4.5c5.3.2,5.6,3,5.6,3s6.9-2.6,11.7.6a9.8,9.8,0,0,1,4.7,7.7s4.5,1.9,4.5,6.3-2.7,6.2-2.7,6.2,1.2,3.1-.3,5.2a8.4,8.4,0,0,1-3.7,3,3.6,3.6,0,0,1-1.1,1.8,5.2,5.2,0,0,1-2.2.9l1.6,8.2Z" transform="translate(-10.2 -5.3)"/><path class="b" d="M36.6,32.7c.2,0,3.7.3,5.5,2.4a11.2,11.2,0,0,1,2.1,4.3" transform="translate(-10.2 -5.3)"/><path class="b" d="M46.7,34a8.6,8.6,0,0,0-2.5,7.1c.4,4.6.7,4.4.7,4.4" transform="translate(-10.2 -5.3)"/><path class="b" d="M48.4,23a4.2,4.2,0,0,1,2.5-2.4c1.8-.5,4.1.9,4.1.9" transform="translate(-10.2 -5.3)"/><path class="b" d="M56.4,29.5a11.7,11.7,0,0,1-1.8-7.1,6.4,6.4,0,0,1,3.1-5" transform="translate(-10.2 -5.3)"/><path class="b" d="M66.7,29.5s.8-2.9,3.1-3.7a6.9,6.9,0,0,1,4.3-.1" transform="translate(-10.2 -5.3)"/><path class="b" d="M68.7,38.9a9.2,9.2,0,0,0-6.2-1.1c-4.8,1.1-6.5,8.3-6.5,8.3" transform="translate(-10.2 -5.3)"/></svg>